<!-- A sprite that contains all SVG files -->
<svg xmlns="http://www.w3.org/2000/svg" xmlns:xlink="http://www.w3.org/1999/xlink">
  <defs>
    <symbol id="ttriangle" xmlns="http://www.w3.org/2000/svg"><polygon strokeWidth="1px" strokeLinejoin="round" strokeMiterlimit="10" points="14.921,2.27 28.667,25.5 1.175,25.5" /></symbol>
    <symbol id="tcircle" xmlns="http://www.w3.org/2000/svg"><path d="M15,30A15,15,0,1,1,30,15,15,15,0,0,1,15,30ZM15,6.23A8.77,8.77,0,1,0,23.77,15,8.77,8.77,0,0,0,15,6.23Z" /></symbol>
    <symbol id="tarrowUp" xmlns="http://www.w3.org/2000/svg"><path d="M28.74,20.81H1.26a1.26,1.26,0,0,1-1-2L14.16.5a1.25,1.25,0,0,1,1-.5h0a1.24,1.24,0,0,1,1,.51L29.75,18.8a1.25,1.25,0,0,1-1,2ZM3.81,18.29H26.22L15.16,3.37Z" /><path d="M28.74,42H1.26a1.28,1.28,0,0,1-1.13-.71A1.26,1.26,0,0,1,.26,40l13.9-18.29a1.28,1.28,0,0,1,1-.5h0a1.24,1.24,0,0,1,1,.51L29.75,40a1.26,1.26,0,0,1,.12,1.32A1.28,1.28,0,0,1,28.74,42ZM3.81,39.47H26.22L15.16,24.55Z" /></symbol>
    <symbol id="tupDown" xmlns="http://www.w3.org/2000/svg"><path d="M28.74,44.58a1.28,1.28,0,0,1-1-.51L15.16,27.13l-12.89,17a1.26,1.26,0,1,1-2-1.53l13.9-18.29a1.34,1.34,0,0,1,1-.5,1.24,1.24,0,0,1,1,.51L29.75,42.56a1.27,1.27,0,0,1-1,2Z" /><path d="M14.83,20.82h0a1.28,1.28,0,0,1-1-.52L.25,2a1.27,1.27,0,0,1,2-1.51L14.84,17.45,27.73.5a1.26,1.26,0,0,1,2,1.53L15.84,20.32A1.28,1.28,0,0,1,14.83,20.82Z" /></symbol>
    <symbol id="tbox" xmlns="http://www.w3.org/2000/svg"><path d="M28,2V28H2V2H28m.13-2H1.88A1.88,1.88,0,0,0,0,1.88V28.13A1.88,1.88,0,0,0,1.88,30H28.13A1.87,1.87,0,0,0,30,28.13V1.88A1.88,1.88,0,0,0,28.13,0Z" /></symbol>
    <symbol id="thexa" xmlns="http://www.w3.org/2000/svg"><polygon strokeLinejoin="round" strokeMiterlimit="10" points="27.5,21.904 15,28.809  2.5,21.904 2.5,8.095 15,1.19 27.5,8.095" /></symbol>
    <symbol id="tcross" xmlns="http://www.w3.org/2000/svg"><path strokeWidth="3px" d="M60.5,50l34.8-34.8c2.9-2.9,2.9-7.6,0-10.5c-2.9-2.9-7.6-2.9-10.5,0L50,39.5L15.2,4.7c-2.9-2.9-7.6-2.9-10.5,0    c-2.9,2.9-2.9,7.6,0,10.5L39.5,50L4.7,84.8c-2.9,2.9-2.9,7.6,0,10.5c1.4,1.4,3.3,2.2,5.2,2.2s3.8-0.7,5.2-2.2L50,60.5l34.8,34.8    c1.4,1.4,3.3,2.2,5.2,2.2c1.9,0,3.8-0.7,5.2-2.2c2.9-2.9,2.9-7.6,0-10.5L60.5,50z" /></symbol>
    <!-- <symbol id="triangle" xmlns="http://www.w3.org/2000/svg" width="1792" height="1792" ><path d="m1444 548-292 292v824q0 46-33 79t-79 33-79-33-33-79v-384h-64v384q0 46-33 79t-79 33-79-33-33-79V840L348 548q-28-28-28-68t28-68 68-28 68 28l228 228h368l228-228q28-28 68-28t68 28 28 68-28 68zm-324-164q0 93-65.5 158.5T896 608t-158.5-65.5T672 384t65.5-158.5T896 160t158.5 65.5T1120 384z"></path></symbol> -->
  </defs>
</svg>